<svg xmlns="http://www.w3.org/2000/svg" xmlns:xlink="http://www.w3.org/1999/xlink" 
	 width="73.125px" height="77.625px" viewBox="0 0 73.125 77.625" enable-background="new 0 0 73.125 77.625" xml:space="preserve">

<symbol id="glasses" preserveAspectRatio="xMinYMin" viewBox="0 0 20 100">
    <g id="眼镜片">
        <rect x="14.375" y="39.75" fill="#B0D6EC" width="18" height="7"/>
        <rect x="40.375" y="39.75" fill="#B0D6EC" width="18" height="7"/>
    </g>
    <g id="眼镜框">
        <path fill="none" stroke="#767878" stroke-width="2" stroke-miterlimit="10" d="M14.375,39.75v4c0,0,0.667,3.667,3.229,3.667
            s12.583,0.125,12.583,0.125s3.021-2.125,2.75-3.458c0.063-2.958,0.017-4.021,0.017-4.021s1.42-2.188,3.639-2.208
            s3.406,0.453,3.573,2.375c0.271,3.13,0.24,4.224,0.24,4.224s0.609,2.172,2.953,2.969s12.859,0.12,12.859,0.12
            s3.469-1.979,3.031-3.354c0.094-1.594-0.125-4.888-0.125-4.888"/>
    </g>
</symbol>

<g id="shape">
	<g id="XMLID_1_">
		<g>
			<path fill="#ECBB45" d="M8.565,50.44c0,0-3.63-2.38-5.31-5.75l0.31-11.06c0,0,1.75-3.5,2.56-3.5c0.14,0-0.13-8.07-0.13-10.79
				c0.76-3.75,7.07-3.9,7.07-3.9c2.96-5.87,14.32-12.67,23.44-11.71c10.05-0.83,18.521,4.22,22.64,11.68c0,0,6.23-2.27,8.23,3.39
				v10.89c0,0,1.82,1.82,2.25,3.9c0.52,2.49-0.25,10.16-0.25,10.16s-0.94,7.75-5.06,7.75c0.119,11-8.19,24.19-26.11,23.67
				C23.995,74.69,7.995,64.94,8.565,50.44z"/>
		</g>
		<g>
			<path fill="none" stroke="#000000" stroke-width="4" stroke-miterlimit="10" d="M13.065,15.44c2.96-5.87,14.32-12.67,23.44-11.71
				c10.05-0.83,18.521,4.22,22.64,11.68c0,0,6.23-2.27,8.23,3.39v10.89c0,0,1.82,1.82,2.25,3.9c0.52,2.49-0.25,10.16-0.25,10.16
				s-0.94,7.75-5.06,7.75c0.119,11-8.19,24.19-26.11,23.67c-14.21-0.48-30.21-10.23-29.64-24.73c0,0-3.63-2.38-5.31-5.75l0.31-11.06
				c0,0,1.75-3.5,2.56-3.5c0.14,0-0.13-8.07-0.13-10.79C6.755,15.59,13.065,15.44,13.065,15.44z"/>
		</g>
	</g>
	<path fill="#FFFFFF" stroke="#000000" stroke-width="4" stroke-miterlimit="10" d="M64.958,24.565"/>
	<path fill="#ECBB45" stroke="#000000" stroke-width="4" stroke-miterlimit="10" d="M79.5,64.875"/>
</g>
<g id="抬头纹">
	<path fill="none" stroke="#CC880E" stroke-width="2" stroke-miterlimit="10" d="M23.375,18.75h27H23.375z"/>
	<line fill="none" stroke="#CC880E" stroke-width="2" stroke-miterlimit="10" x1="23.375" y1="23.75" x2="50.375" y2="23.75"/>
</g>
<g id="嘴">
	<path fill="none" stroke="#C58516" stroke-width="3" stroke-miterlimit="10" d="M29.5,57.708c0,4.708,13.875,3.958,14.375,0"/>
</g>
<g id="眼睛">
	<ellipse fill="#040000" cx="23.417" cy="38.708" rx="3.708" ry="6.625"/>
	<ellipse fill="#040000" cx="49.417" cy="38.708" rx="3.708" ry="6.625"/>
</g>
<g id="鼻子">
	<path fill="#ED864B" d="M32.938,47.031l7.313,0.156c0,0-0.375,3.125-3.375,3.25C33.313,50.594,32.938,47.031,32.938,47.031z"/>
</g>
<g id="头发">
	<path fill="#FFFFFF" d="M10.375,36.75c5,0,5,0,5,0l-0.813-19.313c0,0-5.594-0.281-6.594,2.156l0.156,10.953
		C8.125,30.547,10.422,32.391,10.375,36.75z"/>
	<path fill="#FFFFFF" d="M58.292,17.832l-0.276,17.645c0,0,0.104,0.013,5.336-0.207c0.211-4.331,2.023-4.644,2.023-4.644
		s0-8.906,0-11.875C62.896,15.186,58.292,17.832,58.292,17.832z"/>
</g>

<use xlink:href="#glasses" x="0" y="0" width="200" height="100">
    <animate id="animate_glasses_pause1" attributeName="y" values="0" dur="1s" begin="0;animate_glasses_up.end" />
    <animate id="animate_glasses_down" attributeName="y" values="0;5" dur="0.3s" begin="animate_glasses_pause1.end" />
    <animate id="animate_glasses_pause2" attributeName="y" values="5" dur="1s" begin="animate_glasses_down.end" />
    <animate id="animate_glasses_up" attributeName="y" values="5;0" dur="0.5s" begin="animate_glasses_pause2.end"/>
</use>

</svg>
